{
  "accessors": [
    {
      "bufferView": 2,
      "componentType": 5126,
      "count": 2619,
      "max": [
        2.0467545986175537,
        2.2228643894195557,
        4.148242473602295
      ],
      "min": [
        -2.0467545986175537,
        -1.8399239778518677,
        -0.13423189520835876
      ],
      "type": "VEC3"
    },
    {
      "bufferView": 2,
      "byteOffset": 31428,
      "componentType": 5126,
      "count": 2619,
      "max": [
        1.0,
        0.997256338596344,
        0.9989372491836548
      ],
      "min": [
        -1.0,
        -0.9998895525932312,
        -0.9986056089401245
      ],
      "type": "VEC3"
    },
    {
      "bufferView": 1,
      "componentType": 5126,
      "count": 2619,
      "max": [
        0.9905830025672913,
        0.9905830025672913
      ],
      "min": [
        0.008949000388383865,
        0.008949000388383865
      ],
      "type": "VEC2"
    },
    {
      "bufferView": 0,
      "componentType": 5125,
      "count": 8163,
      "type": "SCALAR"
    }
  ],
  "asset": {
    "extras": {
      "author": "Khyoocumber (https://sketchfab.com/Khyoocumber)",
      "license": "CC-BY-4.0 (http://creativecommons.org/licenses/by/4.0/)",
      "source": "https://sketchfab.com/3d-models/lowpoly-mech-boss-tripple-canons-0e68941739814732818502113f032d9d",
      "title": "Lowpoly mech boss tripple canons"
    },
    "generator": "Sketchfab-15.33.0",
    "version": "2.0"
  },
  "bufferViews": [
    {
      "buffer": 0,
      "byteLength": 32652,
      "name": "floatBufferViews",
      "target": 34963
    },
    {
      "buffer": 0,
      "byteLength": 20952,
      "byteOffset": 32652,
      "byteStride": 8,
      "name": "floatBufferViews",
      "target": 34962
    },
    {
      "buffer": 0,
      "byteLength": 62856,
      "byteOffset": 53604,
      "byteStride": 12,
      "name": "floatBufferViews",
      "target": 34962
    }
  ],
  "buffers": [
    {
      "byteLength": 116460,
      "uri": "scene.bin"
    }
  ],
  "extensionsUsed": [
    "KHR_materials_unlit"
  ],
  "images": [
    {
      "uri": "textures/Mnupao_10006_Mnupao_T_10006_baseColor.png"
    }
  ],
  "materials": [
    {
      "doubleSided": true,
      "extensions": {
        "KHR_materials_unlit": {}
      },
      "name": "Mnupao_10006_Mnupao_T_10006",
      "pbrMetallicRoughness": {
        "baseColorTexture": {
          "index": 0
        },
        "metallicFactor": 0.0
      }
    }
  ],
  "meshes": [
    {
      "name": "Mnupao_10006_Mnupao_M_10006_Mnupao_10006_Mnupao_T_10006_0",
      "primitives": [
        {
          "attributes": {
            "NORMAL": 1,
            "POSITION": 0,
            "TEXCOORD_0": 2
          },
          "indices": 3,
          "material": 0,
          "mode": 4
        }
      ]
    }
  ],
  "nodes": [
    {
      "children": [
        1
      ],
      "matrix": [
        1.0,
        0.0,
        0.0,
        0.0,
        0.0,
        2.220446049250313e-16,
        -1.0,
        0.0,
        0.0,
        1.0,
        2.220446049250313e-16,
        0.0,
        0.0,
        0.0,
        0.0,
        1.0
      ],
      "name": "Sketchfab_model"
    },
    {
      "children": [
        2
      ],
      "matrix": [
        0.009999999776482582,
        0.0,
        0.0,
        0.0,
        0.0,
        0.0,
        0.009999999776482582,
        0.0,
        0.0,
        -0.009999999776482582,
        0.0,
        0.0,
        0.0,
        0.0,
        0.0,
        1.0
      ],
      "name": "Mnupao_10006.fbx"
    },
    {
      "children": [
        3
      ],
      "name": "RootNode"
    },
    {
      "children": [
        4
      ],
      "matrix": [
        1.0,
        0.0,
        0.0,
        0.0,
        0.0,
        -1.3948763699644928e-08,
        -0.9999999999999999,
        0.0,
        0.0,
        0.9999999999999999,
        -1.3948763699644928e-08,
        0.0,
        0.0,
        0.0,
        0.0,
        1.0
      ],
      "name": "Mnupao_10006_Mnupao_M_10006"
    },
    {
      "mesh": 0,
      "name": "Mnupao_10006_Mnupao_M_10006_Mnupao_10006_Mnupao_T_10006_0"
    }
  ],
  "samplers": [
    {
      "magFilter": 9729,
      "minFilter": 9987,
      "wrapS": 10497,
      "wrapT": 10497
    }
  ],
  "scene": 0,
  "scenes": [
    {
      "name": "Sketchfab_Scene",
      "nodes": [
        0
      ]
    }
  ],
  "textures": [
    {
      "sampler": 0,
      "source": 0
    }
  ]
}
