{
  "accessors": [
    {
      "bufferView": 2,
      "componentType": 5126,
      "count": 2804,
      "max": [
        1.382818579673767,
        5.119006633758545,
        3.026106119155884
      ],
      "min": [
        -1.382818579673767,
        -1.0544015169143677,
        -0.22710029780864716
      ],
      "type": "VEC3"
    },
    {
      "bufferView": 2,
      "byteOffset": 33648,
      "componentType": 5126,
      "count": 2804,
      "max": [
        1.0,
        1.0,
        0.9999220967292786
      ],
      "min": [
        -1.0,
        -1.0,
        -0.9999746084213257
      ],
      "type": "VEC3"
    },
    {
      "bufferView": 1,
      "componentType": 5126,
      "count": 2804,
      "max": [
        0.994297981262207,
        0.9917420148849487
      ],
      "min": [
        0.005799999926239252,
        0.007306000217795372
      ],
      "type": "VEC2"
    },
    {
      "bufferView": 1,
      "byteOffset": 22432,
      "componentType": 5126,
      "count": 2804,
      "max": [
        0.994297981262207,
        0.9917420148849487
      ],
      "min": [
        0.005799999926239252,
        0.007306000217795372
      ],
      "type": "VEC2"
    },
    {
      "bufferView": 0,
      "componentType": 5125,
      "count": 11046,
      "type": "SCALAR"
    }
  ],
  "asset": {
    "extras": {
      "author": "Khyoocumber (https://sketchfab.com/Khyoocumber)",
      "license": "CC-BY-4.0 (http://creativecommons.org/licenses/by/4.0/)",
      "source": "https://sketchfab.com/3d-models/gigantic-lowpoly-monster-fish-2bddbbde07474d4aae424c06b4b603d7",
      "title": "Gigantic Lowpoly monster fish"
    },
    "generator": "Sketchfab-15.33.0",
    "version": "2.0"
  },
  "bufferViews": [
    {
      "buffer": 0,
      "byteLength": 44184,
      "name": "floatBufferViews",
      "target": 34963
    },
    {
      "buffer": 0,
      "byteLength": 44864,
      "byteOffset": 44184,
      "byteStride": 8,
      "name": "floatBufferViews",
      "target": 34962
    },
    {
      "buffer": 0,
      "byteLength": 67296,
      "byteOffset": 89048,
      "byteStride": 12,
      "name": "floatBufferViews",
      "target": 34962
    }
  ],
  "buffers": [
    {
      "byteLength": 156344,
      "uri": "scene.bin"
    }
  ],
  "extensionsUsed": [
    "KHR_materials_unlit"
  ],
  "images": [
    {
      "uri": "textures/Mnupao_10005_Mnupao_T_10005_baseColor.png"
    }
  ],
  "materials": [
    {
      "alphaMode": "BLEND",
      "doubleSided": true,
      "extensions": {
        "KHR_materials_unlit": {}
      },
      "name": "Mnupao_10005_Mnupao_T_10005",
      "pbrMetallicRoughness": {
        "baseColorTexture": {
          "index": 0
        },
        "metallicFactor": 0.0
      }
    }
  ],
  "meshes": [
    {
      "name": "Mnupao_10005_Mnupao_M_10005_Mnupao_10005_Mnupao_T_10005_0",
      "primitives": [
        {
          "attributes": {
            "NORMAL": 1,
            "POSITION": 0,
            "TEXCOORD_0": 2,
            "TEXCOORD_1": 3
          },
          "indices": 4,
          "material": 0,
          "mode": 4
        }
      ]
    }
  ],
  "nodes": [
    {
      "children": [
        1
      ],
      "matrix": [
        1.0,
        0.0,
        0.0,
        0.0,
        0.0,
        2.220446049250313e-16,
        -1.0,
        0.0,
        0.0,
        1.0,
        2.220446049250313e-16,
        0.0,
        0.0,
        0.0,
        0.0,
        1.0
      ],
      "name": "Sketchfab_model"
    },
    {
      "children": [
        2
      ],
      "matrix": [
        0.009999999776482582,
        0.0,
        0.0,
        0.0,
        0.0,
        0.0,
        0.009999999776482582,
        0.0,
        0.0,
        -0.009999999776482582,
        0.0,
        0.0,
        0.0,
        0.0,
        0.0,
        1.0
      ],
      "name": "Mnupao_10005.fbx"
    },
    {
      "children": [
        3
      ],
      "name": "RootNode"
    },
    {
      "children": [
        4
      ],
      "matrix": [
        1.0,
        0.0,
        0.0,
        0.0,
        0.0,
        -1.3948763699644928e-08,
        -0.9999999999999999,
        0.0,
        0.0,
        0.9999999999999999,
        -1.3948763699644928e-08,
        0.0,
        0.0,
        0.0,
        0.0,
        1.0
      ],
      "name": "Mnupao_10005_Mnupao_M_10005"
    },
    {
      "mesh": 0,
      "name": "Mnupao_10005_Mnupao_M_10005_Mnupao_10005_Mnupao_T_10005_0"
    }
  ],
  "samplers": [
    {
      "magFilter": 9729,
      "minFilter": 9987,
      "wrapS": 10497,
      "wrapT": 10497
    }
  ],
  "scene": 0,
  "scenes": [
    {
      "name": "Sketchfab_Scene",
      "nodes": [
        0
      ]
    }
  ],
  "textures": [
    {
      "sampler": 0,
      "source": 0
    }
  ]
}
